Coordinates
version=1
nRows=37
nColumns=38
inDegrees=no

Units are S.I. units (second, meters, Newtons, ...)
If the header above contains a line with 'inDegrees', this indicates whether rotational values are in degrees (yes) or radians (no).

endheader
time	pelvis_tilt	pelvis_list	pelvis_rotation	pelvis_tx	pelvis_ty	pelvis_tz	hip_flexion_r	hip_adduction_r	hip_rotation_r	knee_angle_r	ankle_angle_r	subtalar_angle_r	mtp_angle_r	hip_flexion_l	hip_adduction_l	hip_rotation_l	knee_angle_l	ankle_angle_l	subtalar_angle_l	mtp_angle_l	lumbar_extension	lumbar_bending	lumbar_rotation	arm_flex_r	arm_add_r	arm_rot_r	elbow_flex_r	pro_sup_r	wrist_flex_r	wrist_dev_r	arm_flex_l	arm_add_l	arm_rot_l	elbow_flex_l	pro_sup_l	wrist_flex_l	wrist_dev_l
0	1.57814	1.46811	-0.113949	0.769066	-0.320445	0.951561	0.0633695	0.180094	-0.0018787	0.24373	0.049171	0	0	0.480072	-0.294707	-0.153038	1.2043	0.0278088	0	0	-0.110026	0.119372	-0.0256634	-0.274998	-0.0523772	-0.518627	0.402626	1.09387	0	0	-0.158891	-0.336298	0.469906	0.657121	0.707439	0	0
0.01	1.57805	1.47032	-0.119511	0.769348	-0.313041	0.951701	0.0543288	0.178193	0.00713065	0.242983	0.0521831	0	0	0.488564	-0.296788	-0.165169	1.17148	0.0346558	0	0	-0.113454	0.11712	-0.0203815	-0.275186	-0.0529828	-0.513121	0.408882	1.08517	0	0	-0.154631	-0.336028	0.474378	0.653439	0.709219	0	0
0.02	1.62891	1.46262	-0.176518	0.768887	-0.305884	0.953065	0.0215228	0.183241	0.0212861	0.208989	0.0400086	0	0	0.487835	-0.292885	-0.17535	1.13575	0.0314883	0	0	-0.125576	0.127044	-0.0151937	-0.267537	-0.0546173	-0.54075	0.406532	1.13341	0	0	-0.149608	-0.330559	0.476194	0.646417	0.710485	0	0
0.03	1.60495	1.47429	-0.155853	0.770062	-0.298485	0.952177	0.0281839	0.173553	0.0246284	0.23295	0.0551975	0	0	0.495982	-0.299919	-0.194614	1.09671	0.0467189	0	0	-0.123132	0.112883	-0.0146612	-0.268393	-0.0523528	-0.532846	0.411222	1.1269	0	0	-0.149581	-0.332768	0.472145	0.645328	0.71456	0	0
0.04	1.65424	1.46885	-0.206523	0.77052	-0.290559	0.953031	-0.00426493	0.178308	0.0407689	0.198978	0.0429627	0	0	0.493545	-0.30779	-0.208584	1.05514	0.0529464	0	0	-0.132827	0.117879	-0.0151009	-0.264755	-0.0539126	-0.52908	0.413032	1.12557	0	0	-0.146746	-0.329674	0.469757	0.639909	0.715287	0	0
0.05	1.64108	1.46992	-0.200726	0.769507	-0.28358	0.952833	-0.0118866	0.174295	0.0446562	0.197409	0.0485097	0	0	0.498821	-0.294989	-0.221721	1.01558	0.0490089	0	0	-0.135853	0.118457	-0.0118661	-0.260535	-0.0561367	-0.532802	0.415691	1.13562	0	0	-0.146006	-0.327342	0.470631	0.639239	0.711116	0	0
0.06	1.58232	1.47966	-0.147248	0.769545	-0.276417	0.951428	0.00207592	0.164058	0.0410833	0.227835	0.0686217	0	0	0.508719	-0.288002	-0.240604	0.974999	0.0541085	0	0	-0.131145	0.108338	-0.0104322	-0.259427	-0.0554114	-0.531196	0.420031	1.13599	0	0	-0.146667	-0.328511	0.469721	0.640779	0.711326	0	0
0.07	1.56207	1.48229	-0.130468	0.769493	-0.269019	0.950927	-0.00216056	0.160359	0.0432384	0.233205	0.0759115	0	0	0.512214	-0.287485	-0.258703	0.931865	0.0587514	0	0	-0.132097	0.105369	-0.00971472	-0.256867	-0.0558153	-0.528745	0.423609	1.13477	0	0	-0.145567	-0.327337	0.468605	0.639174	0.711618	0	0
0.08	1.57229	1.48466	-0.143903	0.769341	-0.261474	0.950683	-0.0118085	0.156385	0.0478875	0.233796	0.0813031	0	0	0.510629	-0.286493	-0.279051	0.886337	0.0636272	0	0	-0.136077	0.102143	-0.00953437	-0.255435	-0.0579355	-0.509372	0.429616	1.10409	0	0	-0.144169	-0.324615	0.462723	0.635243	0.721336	0	0
0.09	1.5704	1.48604	-0.143169	0.768992	-0.253781	0.950245	-0.0212031	0.153459	0.0506239	0.232689	0.0862109	0	0	0.510827	-0.285074	-0.29732	0.841552	0.0681342	0	0	-0.138545	0.100291	-0.0104234	-0.251576	-0.0585898	-0.506453	0.430344	1.10056	0	0	-0.142546	-0.322945	0.462134	0.632908	0.722259	0	0
0.1	1.55946	1.4872	-0.132769	0.768517	-0.246045	0.949659	-0.0295008	0.150625	0.0520132	0.2322	0.091507	0	0	0.511801	-0.283054	-0.315428	0.797264	0.0725212	0	0	-0.140015	0.0988775	-0.0115648	-0.248556	-0.0594985	-0.501921	0.432048	1.09504	0	0	-0.14099	-0.321258	0.461921	0.630994	0.723439	0	0
0.11	1.54187	1.4884	-0.115205	0.767925	-0.238243	0.948972	-0.0371069	0.147583	0.0524173	0.232052	0.097255	0	0	0.513081	-0.280241	-0.333905	0.753361	0.0768984	0	0	-0.140789	0.0975125	-0.0126744	-0.245106	-0.0597169	-0.503854	0.432612	1.10076	0	0	-0.13933	-0.319588	0.462439	0.629417	0.722997	0	0
0.12	1.51769	1.49009	-0.0905046	0.767199	-0.230316	0.948197	-0.0436993	0.143805	0.051192	0.232909	0.10379	0	0	0.514155	-0.27573	-0.352129	0.709366	0.0816452	0	0	-0.140727	0.0956621	-0.0143119	-0.241934	-0.0599227	-0.504087	0.433129	1.10308	0	0	-0.138085	-0.317547	0.46193	0.627621	0.723043	0	0
0.13	1.48123	1.49219	-0.0531682	0.76634	-0.222334	0.947272	-0.0483988	0.139431	0.0490626	0.235519	0.110663	0	0	0.515793	-0.269632	-0.369705	0.665927	0.086899	0	0	-0.139457	0.0934592	-0.0160467	-0.239073	-0.0600722	-0.504134	0.433644	1.10452	0	0	-0.136953	-0.315051	0.460683	0.625473	0.723243	0	0
0.14	1.42921	1.49444	9.42872e-05	0.765364	-0.214283	0.946168	-0.051252	0.13467	0.0462654	0.23964	0.11798	0	0	0.518256	-0.262066	-0.386705	0.623014	0.0925734	0	0	-0.136756	0.0910638	-0.0175452	-0.237039	-0.0601735	-0.503927	0.4345	1.10552	0	0	-0.13587	-0.312081	0.458691	0.622839	0.723641	0	0
0.15	1.36225	1.49732	0.0687666	0.764244	-0.206145	0.944959	-0.0527015	0.128849	0.0428247	0.24478	0.126037	0	0	0.520551	-0.251631	-0.401154	0.579042	0.0981542	0	0	-0.132832	0.087767	-0.019553	-0.234811	-0.0602403	-0.504457	0.4339	1.10647	0	0	-0.135253	-0.308175	0.453855	0.618964	0.724565	0	0
0.16	1.27746	1.49977	0.156075	0.762972	-0.197909	0.943627	-0.0531621	0.12296	0.0386488	0.249974	0.134148	0	0	0.523576	-0.239559	-0.411875	0.535643	0.10441	0	0	-0.127719	0.0844294	-0.0226489	-0.232467	-0.0610017	-0.500994	0.431718	1.09816	0	0	-0.135853	-0.301168	0.436422	0.612136	0.746823	0	0
0.17	1.17826	1.50294	0.25827	0.761545	-0.189553	0.942288	-0.0522303	0.115214	0.0321675	0.257573	0.143714	0	0	0.524705	-0.223303	-0.417195	0.488779	0.109178	0	0	-0.122007	0.0794395	-0.0260708	-0.230049	-0.0615634	-0.497781	0.428301	1.08966	0	0	-0.13674	-0.295347	0.423453	0.607126	0.750427	0	0
0.18	1.07506	1.50446	0.364153	0.760148	-0.181067	0.940878	-0.0516898	0.108764	0.0276827	0.264519	0.151908	0	0	0.525812	-0.208187	-0.421201	0.444074	0.114006	0	0	-0.116056	0.0753613	-0.0283566	-0.229732	-0.0618282	-0.495107	0.428426	1.08493	0	0	-0.137783	-0.290599	0.415111	0.603931	0.750053	0	0
0.19	0.975158	1.50422	0.466255	0.758817	-0.172449	0.939403	-0.0518383	0.103809	0.0248568	0.270712	0.159064	0	0	0.527652	-0.195198	-0.424635	0.403804	0.118618	0	0	-0.109822	0.0723188	-0.0295685	-0.230765	-0.0621205	-0.492314	0.430081	1.07996	0	0	-0.139004	-0.286311	0.409316	0.601213	0.749356	0	0
0.2	0.864071	1.50954	0.580069	0.757145	-0.163619	0.938449	-0.0543361	0.0913707	0.0161748	0.279053	0.168887	0	0	0.516093	-0.1679	-0.407772	0.341566	0.111779	0	0	-0.106788	0.0628927	-0.0320333	-0.226136	-0.0602314	-0.507702	0.421693	1.10276	0	0	-0.139303	-0.279851	0.394713	0.593349	0.757068	0	0
0.21	0.758044	1.51124	0.687094	0.755751	-0.154608	0.93731	-0.0563918	0.0826764	0.0112462	0.287192	0.17693	0	0	0.507692	-0.148017	-0.392606	0.289834	0.10751	0	0	-0.102601	0.056538	-0.0319408	-0.225778	-0.0602794	-0.507679	0.418439	1.10049	0	0	-0.140007	-0.27491	0.388501	0.587106	0.756295	0	0
0.22	0.663958	1.51174	0.780833	0.754494	-0.145413	0.936202	-0.0589514	0.07507	0.00779995	0.295243	0.184019	0	0	0.499184	-0.131403	-0.376302	0.243756	0.102913	0	0	-0.0985184	0.0511968	-0.0301508	-0.226429	-0.0607009	-0.506975	0.415691	1.09825	0	0	-0.140588	-0.270036	0.384064	0.580166	0.755197	0	0
0.23	0.587581	1.51101	0.855537	0.753403	-0.136087	0.935092	-0.0613974	0.068882	0.00609714	0.30396	0.190152	0	0	0.493445	-0.119933	-0.364315	0.210051	0.100649	0	0	-0.0947216	0.0471364	-0.0254496	-0.228646	-0.0610339	-0.507461	0.41391	1.09617	0	0	-0.140439	-0.265329	0.381851	0.57335	0.754103	0	0
0.24	0.540083	1.50948	0.900398	0.75247	-0.126658	0.934016	-0.063825	0.0644959	0.00593179	0.314044	0.194842	0	0	0.491727	-0.114242	-0.35976	0.192581	0.1028	0	0	-0.0915751	0.044686	-0.0191599	-0.230492	-0.0615694	-0.508827	0.410081	1.09423	0	0	-0.140376	-0.261244	0.382009	0.567446	0.753084	0	0
0.25	0.507114	1.50817	0.929803	0.751649	-0.11708	0.933006	-0.0656615	0.0603821	0.00674474	0.326902	0.198968	0	0	0.492658	-0.112028	-0.360338	0.188719	0.106836	0	0	-0.0887155	0.0425701	-0.0126947	-0.232026	-0.0626338	-0.509032	0.404661	1.09201	0	0	-0.141272	-0.257563	0.38285	0.561923	0.751975	0	0
0.26	0.490568	1.5074	0.942236	0.7509	-0.107351	0.932096	-0.0681067	0.0566766	0.00990982	0.340577	0.202107	0	0	0.496318	-0.113202	-0.365038	0.198936	0.111233	0	0	-0.0865281	0.0408024	-0.00677489	-0.233231	-0.0638319	-0.511108	0.39872	1.09546	0	0	-0.143655	-0.254435	0.383139	0.558045	0.751956	0	0
0.27	0.482895	1.5068	0.945031	0.750248	-0.0974361	0.931254	-0.0700691	0.0531961	0.0144399	0.356365	0.205053	0	0	0.502616	-0.117554	-0.373549	0.221694	0.115046	0	0	-0.0839988	0.0390795	-0.00148965	-0.236295	-0.0656114	-0.50843	0.395753	1.09357	0	0	-0.147606	-0.251652	0.382729	0.554918	0.75051	0	0
0.28	0.495754	1.50302	0.926046	0.749812	-0.0874027	0.930145	-0.0684607	0.053349	0.0222067	0.375359	0.207013	0	0	0.5187	-0.131409	-0.394543	0.267898	0.124696	0	0	-0.0792623	0.0402921	0.00630141	-0.246887	-0.0705027	-0.472992	0.402956	1.03804	0	0	-0.152287	-0.24946	0.384673	0.553669	0.745057	0	0
0.29	0.492312	1.50534	0.923942	0.749259	-0.0768912	0.929692	-0.0719125	0.0480171	0.028133	0.393901	0.207278	0	0	0.519495	-0.134456	-0.396625	0.294997	0.121808	0	0	-0.0797184	0.036681	0.0154413	-0.251952	-0.0704512	-0.478429	0.40057	1.04238	0	0	-0.155799	-0.248537	0.387947	0.552794	0.744873	0	0
0.3	0.492209	1.5067	0.917518	0.748781	-0.0661659	0.929128	-0.0727189	0.0435809	0.0358322	0.416185	0.206598	0	0	0.521398	-0.140011	-0.402482	0.327493	0.124232	0	0	-0.0790442	0.0338712	0.0270599	-0.259562	-0.0700265	-0.486086	0.400963	1.04652	0	0	-0.159019	-0.248069	0.394621	0.552004	0.744581	0	0
0.31	0.496633	1.50735	0.905791	0.748272	-0.0551947	0.928482	-0.0713689	0.0396573	0.044232	0.441921	0.20503	0	0	0.522303	-0.146331	-0.408554	0.359925	0.134214	0	0	-0.0771771	0.0318671	0.0392768	-0.269989	-0.0695394	-0.494841	0.406095	1.05025	0	0	-0.163336	-0.247666	0.401991	0.551935	0.74328	0	0
0.32	0.491075	1.5074	0.904221	0.747712	-0.043957	0.927797	-0.0675216	0.0353792	0.0517116	0.470603	0.201692	0	0	0.522063	-0.151309	-0.413176	0.388987	0.148247	0	0	-0.0722964	0.0295338	0.0480169	-0.280021	-0.0698887	-0.50041	0.410048	1.05322	0	0	-0.171563	-0.247486	0.406186	0.553578	0.740779	0	0
0.33	0.468188	1.50701	0.921289	0.747055	-0.0324866	0.927102	-0.0605649	0.0302379	0.0570474	0.502803	0.196267	0	0	0.520792	-0.153464	-0.416239	0.41174	0.158316	0	0	-0.0648625	0.0261029	0.0534528	-0.285795	-0.0711532	-0.503492	0.403695	1.05554	0	0	-0.182465	-0.247841	0.408897	0.55631	0.738408	0	0
0.34	0.408389	1.50507	0.975095	0.746263	-0.0210273	0.926172	-0.0461724	0.0232042	0.061027	0.542914	0.189514	0	0	0.520462	-0.153045	-0.420503	0.427276	0.15658	0	0	-0.0538778	0.021603	0.0589807	-0.289796	-0.0713438	-0.518993	0.393009	1.0753	0	0	-0.194153	-0.251772	0.426758	0.563315	0.711914	0	0
0.35	0.351463	1.5049	1.02926	0.744914	-0.00945975	0.925553	-0.0319647	0.0141422	0.0604815	0.58489	0.178022	0	0	0.515462	-0.147024	-0.42006	0.431966	0.138746	0	0	-0.0456994	0.0158848	0.0616882	-0.297095	-0.0719822	-0.521607	0.390035	1.07277	0	0	-0.204606	-0.25184	0.428334	0.565185	0.71125	0	0
0.36	0.29012	1.50565	1.09121	0.743213	0.00191746	0.925142	-0.0152563	0.00399127	0.0564463	0.631642	0.161401	0	0	0.510545	-0.138965	-0.418599	0.436569	0.11559	0	0	-0.0397764	0.00992695	0.0612132	-0.304194	-0.0719993	-0.523631	0.389255	1.06877	0	0	-0.213954	-0.251985	0.427942	0.567525	0.710891	0	0
